# AST/ASF file generated using VICON BodyLanguage
# -----------------------------------------------
:version 1.10
:name VICON
:units
  mass 1.0
  length 0.45
  angle deg
:documentation
   .ast/.asf automatically generated from VICON data using
   VICON BodyBuilder and BodyLanguage model FoxedUp or BRILLIANT.MOD
:root
   order TX TY TZ RX RY RZ
   axis XYZ
   position 0 0 0  
   orientation 0 0 0 
:bonedata
  begin
     id 1 
     name lhipjoint
     direction 0.537252 -0.787203 0.302774 
     length 2.29576 
     axis 0 0 0  XYZ
  end
  begin
     id 2 
     name lfemur
     direction 0.34202 -0.939693 0  
     length 7.31114  
     axis 0 0 20  XYZ
    dof rx ry rz
    limits (-160.0 20.0)
           (-70.0 70.0)
           (-60.0 70.0)
  end
  begin
     id 3 
     name ltibia
     direction 0.34202 -0.939693 0   
     length 8.36008   
     axis 0 0 20   XYZ
    dof rx
    limits (-10.0 170.0)
  end
  begin
     id 4 
     name lfoot
     direction 0.0969116 -0.266263 0.959016   
     length 2.16704   
     axis -90 7.62852e-016 20   XYZ
    dof rx rz
    limits (-45.0 90.0)
           (-70.0 20.0)
  end
  begin
     id 5 
     name ltoes
     direction 1.53563e-011 -4.21779e-011 1   
     length 1.08338   
     axis -90 7.62852e-016 20   XYZ
    dof rx
    limits (-90.0 20.0)
  end
  begin
     id 6 
     name rhipjoint
     direction -0.588228 -0.754791 0.290308   
     length 2.39434  
     axis 0 0 0  XYZ 
  end
  begin
     id 7 
     name rfemur
     direction -0.34202 -0.939693 0   
     length 7.45207   
     axis 0 0 -20   XYZ
    dof rx ry rz
    limits (-160.0 20.0)
           (-70.0 70.0)
           (-70.0 60.0)
  end
  begin
     id 8 
     name rtibia
     direction -0.34202 -0.939693 0   
     length 8.03565   
     axis 0 0 -20   XYZ
    dof rx
    limits (-10.0 170.0)
 end
 begin
     id 9 
     name rfoot
     direction -0.107009 -0.294004 0.949795   
     length 2.11509  
     axis -90 -7.62852e-016 -20   XYZ
    dof rx rz
    limits (-45.0 90.0)
           (-20.0 70.0)
  end
  begin
     id 10 
     name rtoes
     direction -1.53533e-011 -4.22004e-011 1   
     length 1.05493   
     axis -90 -7.62852e-016 -20   XYZ
    dof rx
    limits (-90.0 20.0)
  end
  begin
     id 11 
     name lowerback
     direction -0.0115208 0.997969 -0.0626515   
     length 2.03153   
     axis 0 0 0   XYZ
    dof rx ry rz
    limits (-20.0 45.0)
           (-30.0 30.0)
           (-30.0 30.0)
  end
  begin
     id 12 
     name upperback
     direction -0.00423475 0.999974 -0.00583614   
     length 2.03619   
     axis 0 0 0   XYZ
    dof rx ry rz
    limits (-20.0 45.0)
           (-30.0 30.0)
           (-30.0 30.0)
  end
  begin
     id 13 
     name thorax
     direction 0.00289429 0.999728 0.0231573   
     length 2.03921   
     axis 0 0 0   XYZ
    dof rx ry rz
    limits (-20.0 45.0)
           (-30.0 30.0)
           (-30.0 30.0)
  end
  begin
     id 14 
     name lowerneck
     direction 0.0188995 0.987777 0.154721   
     length 1.78836   
     axis 0 0 0   XYZ
    dof rx ry rz
    limits (-20.0 45.0)
           (-30.0 30.0)
           (-30.0 30.0)
  end
  begin
     id 15 
     name upperneck
     direction -0.00612612 0.992995 -0.118   
     length 1.81789   
     axis 0 0 0   XYZ
    dof rx ry rz
    limits (-20.0 45.0)
           (-30.0 30.0)
           (-30.0 30.0)
  end
  begin
     id 16
     name head
     direction -0.00420226 0.998397 -0.0564482  
     length 1.82234  
     axis 0 0 0   XYZ
    dof rx ry rz
    limits (-20.0 45.0)
           (-30.0 30.0)
           (-30.0 30.0)
  end
  begin
     id 17 
     name lclavicle
     direction 0.916488 0.396539 0.0529676  
     length 3.51732  
     axis 0 0 0   XYZ
    dof ry rz
    limits (-20.0 10.0)
           (0.0 20.0)
  end
  begin
     id 18 
     name lhumerus
     direction 1 -4.4896e-011 8.36962e-028   
     length 5.45077   
     axis 180 -30 -90   XYZ
    dof rx ry rz
    limits (-60.0 90.0)
           (-90.0 90.0)
           (-90.0 90.0)
  end
  begin
     id 19
     name lradius
     direction 1 -4.48962e-011 3.01407e-027   
     length 3.05488   
     axis 180 -30 -90   XYZ
    dof rx
    limits (-10.0 170.0)
  end
  begin
     id 20
     name lwrist
     direction 1 -4.49002e-011 4.72961e-027   
     length 1.52744   
     axis -2.72261e-015 90 90   XYZ
    dof ry
    limits (-180.0 0.0)
 end
  begin
     id 21 
     name lhand
     direction 1 -4.4899e-011 9.45681e-027   
     length 0.638818   
     axis -6.0311e-015 90 90   XYZ
    dof rx rz
    limits (-90.0 90.0)
           (-45.0 45.0)
  end
  begin
     id 22 
     name lfingers
     direction 1 -4.48871e-011 1.88632e-026   
     length 0.515032   
     axis -1.20625e-014 90 90   XYZ
    dof rx
    limits (0.0 90.0)
  end
  begin
     id 23
     name lthumb
     direction 0.707107 -6.34964e-011 0.707107   
     length 0.739485   
     axis -90 45 6.32835e-014   XYZ
    dof rx rz
    limits (-45.0 45.0)
           (-45.0 45.0)
  end
  begin
     id 24 
     name rclavicle
     direction -0.949427 0.303202 0.0815894   
     length 3.76167  
     axis 0 0 0   XYZ 
    dof ry rz
    limits (-10.0 20.0)
           (-20.0 0.0)
  end
  begin
     id 25 
     name rhumerus
     direction -1 -4.48971e-011 -6.43969e-018  
     length 4.88702   
     axis 180 30 90   XYZ
    dof rx ry rz
    limits (-90.0 60.0)
           (-90.0 90.0)
           (-90.0 90.0)
  end
  begin
     id 26 
     name rradius
     direction -1 -4.48987e-011 5.46662e-027   
     length 3.22603   
     axis 180 30 90   XYZ
    dof rx
    limits (-10.0 170.0)
  end
  begin
     id 27 
     name rwrist
     direction -1 -4.48956e-011 4.72476e-027   
     length 1.61302   
     axis -2.72261e-015 -90 -90   XYZ
    dof ry
    limits (-180.0 0.0)
  end
  begin
     id 28
     name rhand
     direction -1 -4.4889e-011 9.43571e-027   
     length 0.716293   
     axis -6.0311e-015 -90 -90   XYZ
    dof rx rz
    limits (-90.0 90.0)
           (-45.0 45.0)
  end
  begin
     id 29
     name rfingers
     direction -1 -4.48887e-011 1.88701e-026   
     length 0.577494   
     axis -1.20625e-014 -90 -90   XYZ
    dof rx
    limits (0.0 90.0)
  end
  begin
     id 30
     name rthumb
     direction -0.707107 -6.34825e-011 0.707107   
     length 0.829169   
     axis -90 -45 -6.32835e-014   XYZ
    dof rx rz
    limits (-45.0 45.0)
           (-45.0 45.0)
  end
:hierarchy
  begin
    root lhipjoint rhipjoint lowerback
    lhipjoint lfemur
    lfemur ltibia
    ltibia lfoot
    lfoot ltoes
    rhipjoint rfemur
    rfemur rtibia
    rtibia rfoot
    rfoot rtoes
    lowerback upperback
    upperback thorax
    thorax lowerneck lclavicle rclavicle
    lowerneck upperneck
    upperneck head
    lclavicle lhumerus
    lhumerus lradius
    lradius lwrist
    lwrist lhand lthumb
    lhand lfingers
    rclavicle rhumerus
    rhumerus rradius
    rradius rwrist
    rwrist rhand rthumb
    rhand rfingers
  end

#!OML:ASF F:\VICON\USERDATA\INSTALL\rory3\rory3.ASF
:FULLY-SPECIFIED
:DEGREES
271
root 1.66128 18.5537 0.579543 135.334 88.2359 122.182
lowerback -11.0916 -0.143859 0.768423
upperback -3.39851 -0.114012 -1.07973
thorax 2.66851 -0.00546965 -1.56591
lowerneck -21.9499 -0.416492 2.31519
upperneck 21.739 -1.27627 0.00220843
head 10.6042 -0.344026 -0.57029
rclavicle 1.43964e-015 -9.49197e-015
rhumerus -29.8821 -18.0321 -62.8149
rradius 74.5367
rwrist -231.913
rhand -27.901 -4.75294
rfingers 7.12502
rthumb -1.29033 -34.7288
lclavicle 1.43964e-015 -9.49197e-015
lhumerus -30.1434 21.2232 58.5699
lradius 77.5152
lwrist 245.39
lhand -28.6116 -33.9641
lfingers 7.12502
lthumb -1.97665 -3.99347
rfemur -8.30723 -12.2929 17.1377
rtibia -3.97569e-015
rfoot -2.38746 11.7982
rtoes -9.12272
lfemur -15.7538 8.28651 -19.7228
ltibia 15.603
lfoot -12.4439 -3.35578
ltoes -27.3975
272
root 1.66176 18.5522 0.580697 134.058 88.2126 120.864
lowerback -11.0623 -0.137653 0.704625
upperback -3.39806 -0.098814 -1.08351
thorax 2.65366 0.00189326 -1.53171
lowerneck -22.0552 -0.394725 2.32781
upperneck 21.5764 -1.26227 0.0239787
head 10.5646 -0.337674 -0.56243
rclavicle 1.41323e-016 1.54555e-014
rhumerus -30.2095 -17.6617 -61.9752
rradius 74.3466
rwrist -230.872
rhand -27.8906 -4.74442
rfingers 7.12502
rthumb -1.28023 -34.7203
lclavicle 1.41323e-016 1.54555e-014
lhumerus -30.6261 21.0634 57.6297
lradius 77.5291
lwrist 244.118
lhand -28.3451 -34.3329
lfingers 7.12502
lthumb -1.71917 -4.36011
rfemur -8.36177 -12.2814 17.1036
rtibia -3.97569e-015
rfoot -2.35189 11.7614
rtoes -8.91283
lfemur -15.8114 8.30632 -19.7798
ltibia 15.6222
lfoot -12.4638 -3.36333
ltoes -27.5141
273
root 1.66382 18.553 0.580279 132.781 88.3101 119.479
lowerback -11.1145 -0.0987376 0.761899
upperback -3.43013 -0.0527343 -1.0678
thorax 2.65021 0.0253338 -1.54177
lowerneck -22.1409 -0.38636 2.3345
upperneck 21.4515 -1.25539 0.0138019
head 10.5347 -0.33829 -0.566181
rclavicle -7.28359e-016 -1.2424e-014
rhumerus -30.5459 -17.1586 -61.1291
rradius 74.2448
rwrist -229.858
rhand -27.6614 -4.70706
rfingers 7.12502
rthumb -1.05886 -34.6842
lclavicle -7.28359e-016 -1.2424e-014
lhumerus -31.1189 20.9416 56.6284
lradius 77.5609
lwrist 242.675
lhand -28.4224 -34.6617
lfingers 7.12502
lthumb -1.7939 -4.68948
rfemur -8.48381 -12.1873 17.1775
rtibia 2.94201e-014
rfoot -2.32935 11.7703
rtoes -8.77381
lfemur -15.9235 8.35228 -19.7372
ltibia 15.6297
lfoot -12.4842 -3.31035
ltoes -27.5049
274
root 1.66635 18.5531 0.578812 131.509 88.3891 118.126
lowerback -11.1628 -0.058627 0.848779
upperback -3.43183 -0.00846486 -1.07899
thorax 2.67611 0.0476794 -1.59675
lowerneck -22.3144 -0.379631 2.34712
upperneck 21.3732 -1.26306 0.0305373
head 10.5381 -0.340765 -0.564077
rclavicle 3.10601e-017 -9.74045e-015
rhumerus -30.8131 -16.7133 -60.3242
rradius 74.2231
rwrist -228.607
rhand -27.2858 -4.6698
rfingers 7.12502
rthumb -0.696111 -34.6484
lclavicle 3.10601e-017 -9.74045e-015
lhumerus -31.5577 20.7174 55.6206
lradius 77.5358
lwrist 241.457
lhand -28.6366 -34.3648
lfingers 7.12502
lthumb -2.00071 -4.39439
rfemur -8.58418 -12.1093 17.2263
rtibia 7.15625e-015
rfoot -2.30436 11.821
rtoes -8.59729
lfemur -16.0032 8.41024 -19.7046
ltibia 15.6367
lfoot -12.4792 -3.33214
ltoes -27.0692
275
root 1.66771 18.5537 0.577603 132.327 88.4252 118.919
lowerback -11.1356 -0.0436333 0.933756
upperback -3.41198 0.00140351 -1.08695
thorax 2.68204 0.0522684 -1.65163
lowerneck -22.4782 -0.349232 2.40512
upperneck 21.2257 -1.24364 0.00913038
head 10.5142 -0.333381 -0.57869
rclavicle 2.23012e-015 -9.34288e-015
rhumerus -30.9705 -16.2906 -59.5062
rradius 74.2897
rwrist -226.859
rhand -26.9841 -4.62225
rfingers 7.12502
rthumb -0.404688 -34.6016
lclavicle 2.23012e-015 -9.34288e-015
lhumerus -31.9586 20.4195 54.6098
lradius 77.5205
lwrist 240.292
lhand -28.6361 -34.039
lfingers 7.12502
lthumb -2.00024 -4.06861
rfemur -8.61796 -12.1021 17.2753
rtibia -1.35174e-014
rfoot -2.30024 11.8177
rtoes -8.62628
lfemur -16.0295 8.29883 -19.6479
ltibia 15.6363
lfoot -12.4768 -3.28219
ltoes -26.9438
